<mxfile host="app.diagrams.net" modified="2021-07-15T17:05:15.599Z" agent="5.0 (Windows NT 10.0; Win64; x64) AppleWebKit/537.36 (KHTML, like Gecko) Chrome/91.0.4472.124 Safari/537.36 OPR/77.0.4054.203" etag="UT5oP_T38POOGQ4seMu_" version="14.8.6" type="github">
  <diagram id="R2lEEEUBdFMjLlhIrx00" name="Page-1">
    <mxGraphModel dx="1382" dy="1864" grid="1" gridSize="10" guides="1" tooltips="1" connect="1" arrows="1" fold="1" page="1" pageScale="1" pageWidth="850" pageHeight="1100" math="0" shadow="0" extFonts="Permanent Marker^https://fonts.googleapis.com/css?family=Permanent+Marker">
      <root>
        <mxCell id="0" />
        <mxCell id="1" parent="0" />
        <mxCell id="9XVyaEB-Nx_Zjfo7yINc-2" style="edgeStyle=orthogonalEdgeStyle;rounded=0;orthogonalLoop=1;jettySize=auto;html=1;exitX=0.5;exitY=1;exitDx=0;exitDy=0;" edge="1" parent="1" source="9XVyaEB-Nx_Zjfo7yINc-1" target="9XVyaEB-Nx_Zjfo7yINc-3">
          <mxGeometry relative="1" as="geometry">
            <mxPoint x="375" y="140" as="targetPoint" />
          </mxGeometry>
        </mxCell>
        <mxCell id="9XVyaEB-Nx_Zjfo7yINc-1" value="&lt;font style=&quot;font-size: 36px&quot;&gt;&lt;b&gt;начало&lt;/b&gt;&lt;/font&gt;" style="ellipse;whiteSpace=wrap;html=1;strokeColor=#000000;" vertex="1" parent="1">
          <mxGeometry x="185" y="-10" width="190" height="90" as="geometry" />
        </mxCell>
        <mxCell id="9XVyaEB-Nx_Zjfo7yINc-4" style="edgeStyle=orthogonalEdgeStyle;rounded=0;orthogonalLoop=1;jettySize=auto;html=1;" edge="1" parent="1" source="9XVyaEB-Nx_Zjfo7yINc-3">
          <mxGeometry relative="1" as="geometry">
            <mxPoint x="375" y="240" as="targetPoint" />
          </mxGeometry>
        </mxCell>
        <mxCell id="9XVyaEB-Nx_Zjfo7yINc-3" value="&lt;font style=&quot;font-size: 36px&quot;&gt;&lt;b&gt;ввод числа n&lt;/b&gt;&lt;/font&gt;" style="shape=parallelogram;perimeter=parallelogramPerimeter;whiteSpace=wrap;html=1;fixedSize=1;strokeColor=#000000;" vertex="1" parent="1">
          <mxGeometry x="140" y="140" width="280" height="50" as="geometry" />
        </mxCell>
        <mxCell id="9XVyaEB-Nx_Zjfo7yINc-7" style="edgeStyle=orthogonalEdgeStyle;rounded=0;orthogonalLoop=1;jettySize=auto;html=1;" edge="1" parent="1" source="9XVyaEB-Nx_Zjfo7yINc-5">
          <mxGeometry relative="1" as="geometry">
            <mxPoint x="401" y="370" as="targetPoint" />
          </mxGeometry>
        </mxCell>
        <mxCell id="9XVyaEB-Nx_Zjfo7yINc-5" value="&lt;font style=&quot;font-size: 36px&quot;&gt;&lt;b&gt;первый делитель&lt;br&gt;i=2&lt;br&gt;&lt;/b&gt;&lt;/font&gt;" style="rounded=0;whiteSpace=wrap;html=1;strokeColor=#000000;" vertex="1" parent="1">
          <mxGeometry x="100" y="230" width="340" height="92" as="geometry" />
        </mxCell>
        <mxCell id="9XVyaEB-Nx_Zjfo7yINc-12" style="edgeStyle=orthogonalEdgeStyle;rounded=0;orthogonalLoop=1;jettySize=auto;html=1;" edge="1" parent="1" source="9XVyaEB-Nx_Zjfo7yINc-8" target="9XVyaEB-Nx_Zjfo7yINc-13">
          <mxGeometry relative="1" as="geometry">
            <mxPoint x="315" y="460" as="targetPoint" />
          </mxGeometry>
        </mxCell>
        <mxCell id="9XVyaEB-Nx_Zjfo7yINc-8" value="&lt;font style=&quot;font-size: 36px&quot;&gt;&lt;b&gt;делитель i&amp;lt;=n&lt;/b&gt;&lt;/font&gt;" style="rhombus;whiteSpace=wrap;html=1;strokeColor=#000000;" vertex="1" parent="1">
          <mxGeometry x="130" y="350" width="370" height="80" as="geometry" />
        </mxCell>
        <mxCell id="9XVyaEB-Nx_Zjfo7yINc-10" style="edgeStyle=orthogonalEdgeStyle;rounded=0;orthogonalLoop=1;jettySize=auto;html=1;" edge="1" parent="1" source="9XVyaEB-Nx_Zjfo7yINc-9">
          <mxGeometry relative="1" as="geometry">
            <mxPoint x="662" y="320" as="targetPoint" />
          </mxGeometry>
        </mxCell>
        <mxCell id="9XVyaEB-Nx_Zjfo7yINc-11" style="edgeStyle=orthogonalEdgeStyle;rounded=0;orthogonalLoop=1;jettySize=auto;html=1;" edge="1" parent="1" source="9XVyaEB-Nx_Zjfo7yINc-9">
          <mxGeometry relative="1" as="geometry">
            <mxPoint x="400" y="340" as="targetPoint" />
          </mxGeometry>
        </mxCell>
        <mxCell id="9XVyaEB-Nx_Zjfo7yINc-9" value="&lt;font style=&quot;font-size: 36px&quot;&gt;&lt;b&gt;увеличиваем&lt;br&gt;делитель на&amp;nbsp;&lt;br&gt;еденицу&lt;br&gt;&lt;/b&gt;&lt;/font&gt;" style="rounded=0;whiteSpace=wrap;html=1;strokeColor=#000000;" vertex="1" parent="1">
          <mxGeometry x="550" y="290" width="290" height="134" as="geometry" />
        </mxCell>
        <mxCell id="9XVyaEB-Nx_Zjfo7yINc-14" style="edgeStyle=orthogonalEdgeStyle;rounded=0;orthogonalLoop=1;jettySize=auto;html=1;" edge="1" parent="1" source="9XVyaEB-Nx_Zjfo7yINc-13">
          <mxGeometry relative="1" as="geometry">
            <mxPoint x="710" y="430" as="targetPoint" />
          </mxGeometry>
        </mxCell>
        <mxCell id="9XVyaEB-Nx_Zjfo7yINc-13" value="&lt;font style=&quot;font-size: 36px&quot;&gt;&lt;b&gt;остаток &lt;br&gt;от деления n на i равен&lt;br&gt;нулю?&lt;br&gt;&lt;/b&gt;&lt;/font&gt;" style="rhombus;whiteSpace=wrap;html=1;strokeColor=#000000;" vertex="1" parent="1">
          <mxGeometry x="54.5" y="450" width="521" height="160" as="geometry" />
        </mxCell>
      </root>
    </mxGraphModel>
  </diagram>
</mxfile>
